<?xml version="1.0" encoding="UTF-8" standalone="no"?>
<svg
   xmlns:dc="http://purl.org/dc/elements/1.1/"
   xmlns:cc="http://creativecommons.org/ns#"
   xmlns:rdf="http://www.w3.org/1999/02/22-rdf-syntax-ns#"
   xmlns:svg="http://www.w3.org/2000/svg"
   xmlns="http://www.w3.org/2000/svg"
   viewBox="0 0 1280 720"
   height="720"
   width="1280"
   xml:space="preserve"
   id="svg2"
   version="1.1"><metadata
     id="metadata8"><rdf:RDF><cc:Work
         rdf:about=""><dc:format>image/svg+xml</dc:format><dc:type
           rdf:resource="http://purl.org/dc/dcmitype/StillImage" /></cc:Work></rdf:RDF></metadata><defs
     id="defs6"><clipPath
       id="clipPath18"
       clipPathUnits="userSpaceOnUse"><path
         style="clip-rule:evenodd"
         id="path16"
         d="M 0,1.2207e-4 H 960 V 540.00012 H 0 Z" /></clipPath></defs><g
     transform="matrix(1.3333333,0,0,-1.3333333,0,720)"
     id="g10"><g
       id="g12"><g
         clip-path="url(#clipPath18)"
         id="g14"><path
           id="path20"
           style="fill:#ffffff;fill-opacity:1;fill-rule:evenodd;stroke:none"
           d="M 0,6.1035e-5 H 960 V 540.00006 H 0 Z" /></g></g><path
       id="path22"
       style="fill:none;stroke:#7f7f7f;stroke-width:3;stroke-linecap:butt;stroke-linejoin:miter;stroke-miterlimit:10;stroke-dasharray:none;stroke-opacity:1"
       d="m 6.78,527.85 c 0,1.84 1.4917,3.33 3.332,3.33 h 14.216 c 1.84,0 3.332,-1.49 3.332,-3.33 v -14.22 c 0,-1.84 -1.492,-3.33 -3.332,-3.33 H 10.112 c -1.8403,0 -3.332,1.49 -3.332,3.33 z" /><path
       id="path24"
       style="fill:none;stroke:#7f7f7f;stroke-width:3;stroke-linecap:butt;stroke-linejoin:miter;stroke-miterlimit:10;stroke-dasharray:none;stroke-opacity:1"
       d="m 27.66,527.85 c 0,1.84 1.492,3.33 3.332,3.33 h 14.216 c 1.84,0 3.332,-1.49 3.332,-3.33 v -14.22 c 0,-1.84 -1.492,-3.33 -3.332,-3.33 H 30.992 c -1.84,0 -3.332,1.49 -3.332,3.33 z" /><path
       id="path26"
       style="fill:#7f7f7f;fill-opacity:1;fill-rule:evenodd;stroke:none"
       d="m 48.54,527.85 c 0,1.84 1.492,3.33 3.332,3.33 h 14.216 c 1.84,0 3.332,-1.49 3.332,-3.33 v -14.22 c 0,-1.84 -1.492,-3.33 -3.332,-3.33 H 51.872 c -1.84,0 -3.332,1.49 -3.332,3.33 z" /><path
       id="path28"
       style="fill:none;stroke:#7f7f7f;stroke-width:3;stroke-linecap:butt;stroke-linejoin:miter;stroke-miterlimit:10;stroke-dasharray:none;stroke-opacity:1"
       d="m 48.54,527.85 c 0,1.84 1.492,3.33 3.332,3.33 h 14.216 c 1.84,0 3.332,-1.49 3.332,-3.33 v -14.22 c 0,-1.84 -1.492,-3.33 -3.332,-3.33 H 51.872 c -1.84,0 -3.332,1.49 -3.332,3.33 z" /><path
       id="path30"
       style="fill:none;stroke:#7f7f7f;stroke-width:3;stroke-linecap:butt;stroke-linejoin:miter;stroke-miterlimit:10;stroke-dasharray:none;stroke-opacity:1"
       d="m 69.42,527.85 c 0,1.84 1.492,3.33 3.332,3.33 h 14.336 c 1.84,0 3.332,-1.49 3.332,-3.33 v -14.22 c 0,-1.84 -1.492,-3.33 -3.332,-3.33 H 72.752 c -1.84,0 -3.332,1.49 -3.332,3.33 z" /></g></svg>