<?xml version="1.0" encoding="UTF-8"?>
<svg version="1.1" xmlns="http://www.w3.org/2000/svg" width="707" height="708">
<path d="M0 0 C2.00700577 1.82629654 3.99088441 3.67325654 5.97265625 5.52734375 C8.43821967 7.82262365 10.95726343 10.03347215 13.5 12.2421875 C24.17924805 21.83628615 33.87815576 32.73910734 42.6875 44.0546875 C43.16364746 44.65829102 43.63979492 45.26189453 44.13037109 45.88378906 C57.14405176 62.4009972 68.445268 79.69858225 78.6875 98.0546875 C79.07502441 98.73789063 79.46254883 99.42109375 79.86181641 100.125 C99.61692623 135.06251542 111.57216083 174.51973562 117.6875 214.0546875 C117.91397217 215.43116455 117.91397217 215.43116455 118.14501953 216.83544922 C123.45894794 250.18077991 122.94634196 286.72108292 117.6875 320.0546875 C117.43806641 321.65763672 117.43806641 321.65763672 117.18359375 323.29296875 C111.50588805 358.41062996 100.29186023 392.146367 84.6875 424.0546875 C84.02645264 425.40771973 84.02645264 425.40771973 83.35205078 426.78808594 C71.31489109 451.14804797 56.1377897 473.2805331 38.6875 494.0546875 C37.45773437 495.56289062 37.45773437 495.56289062 36.203125 497.1015625 C29.89923779 504.7413577 23.10708603 511.84440757 16.125 518.8671875 C15.26293945 519.73843262 14.40087891 520.60967773 13.51269531 521.50732422 C8.29355494 526.7017621 2.88178144 531.48230364 -2.86352539 536.0871582 C-4.79264226 537.63702889 -6.6749547 539.20839321 -8.52734375 540.84765625 C-21.69123023 552.42507722 -36.30708638 562.32869709 -51.51464844 571.0234375 C-53.32338104 572.06092888 -55.11884744 573.11901057 -56.9140625 574.1796875 C-136.67710432 620.7709341 -234.13054354 632.66031462 -323.18530273 609.30615234 C-346.4865843 602.98167296 -368.62472078 594.65186224 -390.3125 584.0546875 C-391.13911133 583.65169434 -391.96572266 583.24870117 -392.81738281 582.83349609 C-411.26398527 573.73140457 -429.22601751 562.89605825 -445.3125 550.0546875 C-446.44380715 549.18553708 -447.57671462 548.318467 -448.7109375 547.453125 C-455.66701146 542.11571239 -462.25939922 536.52211289 -468.65625 530.52734375 C-470.79345766 528.53785486 -472.95874054 526.62624475 -475.1875 524.7421875 C-484.33699565 516.77696895 -492.81089032 508.05387033 -500.32421875 498.53515625 C-502.13511495 496.27598319 -504.02570081 494.17030495 -506 492.0546875 C-525.08937405 470.72620198 -539.94582937 444.87360413 -552.29882812 419.15625 C-552.97152824 417.76159619 -553.6524663 416.37088431 -554.34179688 414.984375 C-566.70243055 390.03292825 -575.09938939 362.34399617 -580.3125 335.0546875 C-580.50779297 334.03487793 -580.70308594 333.01506836 -580.90429688 331.96435547 C-581.47868506 328.89369945 -582.02834419 325.82008531 -582.5625 322.7421875 C-582.78969727 321.43846191 -582.78969727 321.43846191 -583.02148438 320.10839844 C-585.78274341 303.04731604 -586.69639403 285.94005268 -586.625 268.6796875 C-586.62284485 267.73002106 -586.6206897 266.78035461 -586.61846924 265.8019104 C-586.37716041 198.98516916 -568.10191491 132.19680057 -531.3125 76.0546875 C-530.84505371 75.34086914 -530.37760742 74.62705078 -529.89599609 73.89160156 C-523.77593448 64.63234312 -517.21121779 55.74571922 -510.3125 47.0546875 C-509.58546875 46.13300781 -508.8584375 45.21132812 -508.109375 44.26171875 C-503.01661945 37.91409358 -497.58923013 31.94019553 -492.03515625 26 C-489.96902924 23.78334188 -487.98847127 21.52024114 -486.0625 19.1796875 C-483.42431965 16.0386282 -480.42680999 13.44773371 -477.3046875 10.796875 C-475.43744265 9.16395107 -473.71987604 7.46539611 -472 5.6796875 C-468.37168435 2.00245074 -464.44629627 -1.22393938 -460.41796875 -4.453125 C-458.29445059 -6.15728172 -456.1969085 -7.87412645 -454.11328125 -9.625 C-423.9175338 -34.7448501 -388.27204104 -53.91398496 -351.3125 -66.9453125 C-350.55984863 -67.21537109 -349.80719727 -67.48542969 -349.03173828 -67.76367188 C-253.51947702 -101.86767523 -145.36037059 -90.76405686 0 0 Z M-283.3125 -58.9453125 C-284.35954102 -58.77902344 -285.40658203 -58.61273438 -286.48535156 -58.44140625 C-351.40692147 -47.87869225 -410.44255722 -17.69753851 -458.3125 27.0546875 C-459.36383494 28.00617682 -460.41726126 28.95535986 -461.47265625 29.90234375 C-466.47096368 34.39581828 -471.30496639 38.89865816 -475.62890625 44.0625 C-477.49761177 46.27372927 -479.46484194 48.37327451 -481.4375 50.4921875 C-487.87561347 57.63343964 -493.5896155 65.33827788 -499.3125 73.0546875 C-499.79944336 73.70566406 -500.28638672 74.35664063 -500.78808594 75.02734375 C-502.10377667 76.79637073 -503.39945147 78.57797193 -504.6875 80.3671875 C-505.41710937 81.37394531 -506.14671875 82.38070312 -506.8984375 83.41796875 C-508.53563058 85.84704691 -508.53563058 85.84704691 -508.0402832 87.98364258 C-507.27313487 90.16670844 -506.33298181 91.88296969 -505.08203125 93.828125 C-504.38352051 94.92374756 -504.38352051 94.92374756 -503.67089844 96.04150391 C-503.16075195 96.82960449 -502.65060547 97.61770508 -502.125 98.4296875 C-501.59036133 99.2654834 -501.05572266 100.1012793 -500.50488281 100.96240234 C-499.36098287 102.75036624 -498.21491944 104.53694751 -497.06689453 106.32226562 C-494.79078182 109.8672494 -492.53365729 113.42412485 -490.27612305 116.98095703 C-483.96771548 126.91586759 -477.62164287 136.82668461 -471.27441406 146.73681641 C-466.36918557 154.39753867 -461.48168939 162.06936447 -456.6015625 169.74609375 C-452.18498604 176.69071058 -447.75132452 183.62427369 -443.3125 190.5546875 C-435.38393258 202.93463084 -427.49009586 215.3364467 -419.60351562 227.74316406 C-412.17979735 239.42049515 -404.73699723 251.08532578 -397.27392578 262.73754883 C-392.36888869 270.39804523 -387.481532 278.06961204 -382.6015625 285.74609375 C-378.18498611 292.69071047 -373.75135409 299.62429271 -369.3125 306.5546875 C-363.72690187 315.27549683 -358.15745948 324.00633801 -352.6015625 332.74609375 C-348.18498611 339.69071047 -343.75135409 346.62429271 -339.3125 353.5546875 C-333.72690187 362.27549683 -328.15745948 371.00633801 -322.6015625 379.74609375 C-318.18498611 386.69071047 -313.75135409 393.62429271 -309.3125 400.5546875 C-303.72690187 409.27549683 -298.15745948 418.00633801 -292.6015625 426.74609375 C-288.18498611 433.69071047 -283.75135409 440.62429271 -279.3125 447.5546875 C-273.72690187 456.27549683 -268.15745948 465.00633801 -262.6015625 473.74609375 C-257.51470857 481.74465366 -252.40481347 489.72836298 -247.29101562 497.7097168 C-243.38546655 503.80763009 -239.49355611 509.9139201 -235.61425781 516.02856445 C-227.97985838 530.70466948 -227.97985838 530.70466948 -217.3125 542.0546875 C-216.64214722 540.9097583 -216.64214722 540.9097583 -215.95825195 539.74169922 C-200.93573137 514.08824093 -200.93573137 514.08824093 -193.8125 502.0546875 C-188.78915697 493.56831233 -183.79634456 485.06428997 -178.8125 476.5546875 C-173.65841112 467.75557688 -168.4983472 458.9601379 -163.3125 450.1796875 C-162.79083252 449.29571289 -162.26916504 448.41173828 -161.73168945 447.50097656 C-159.3466179 443.46640556 -156.9475624 439.44165021 -154.51171875 435.4375 C-154.08439453 434.73351074 -153.65707031 434.02952148 -153.21679688 433.30419922 C-152.43181547 432.01427192 -151.64302619 430.72665054 -150.84960938 429.44189453 C-148.90918766 426.46558873 -148.90918766 426.46558873 -148.3125 423.0546875 C-149.97847113 421.74876141 -151.69887139 420.51219458 -153.4375 419.3046875 C-178.21932619 401.37907932 -196.17656 373.36445004 -201.70657349 343.19429016 C-202.49778512 338.18967985 -202.88685861 333.15418028 -203.29248047 328.10620117 C-203.37834852 327.05415843 -203.46421658 326.00211569 -203.55268669 324.91819286 C-204.45832765 313.5936988 -205.15697171 302.25881698 -205.8203125 290.91796875 C-205.95189856 288.6932887 -206.08356337 286.46861331 -206.21530151 284.24394226 C-206.48792721 279.62653498 -206.75814742 275.00899425 -207.02685547 270.39135742 C-207.36802837 264.53537119 -207.71757969 258.67991759 -208.06921577 252.82455158 C-208.34284454 248.24572524 -208.61080952 243.66657947 -208.877285 239.08733177 C-209.00367174 236.93031369 -209.13198765 234.77340757 -209.26245499 232.61663246 C-209.90768062 221.91416358 -210.42038199 211.24049748 -210.43310547 200.51635742 C-210.43473788 199.24041072 -210.43473788 199.24041072 -210.43640327 197.93868732 C-210.39813144 190.83905611 -209.75683132 184.01651732 -208.3125 177.0546875 C-208.17247559 176.36262207 -208.03245117 175.67055664 -207.88818359 174.95751953 C-200.94661732 141.84992461 -180.42175051 113.20215388 -152.21411133 94.67456055 C-123.85104891 76.65193779 -93.62517733 72.40738718 -60.75390625 70.58203125 C-58.51143868 70.45330001 -56.26900241 70.32402248 -54.02659607 70.19422913 C-48.1696967 69.85635996 -42.31247702 69.52444511 -36.45513916 69.1942749 C-27.05839248 68.66385861 -17.66210167 68.12550868 -8.26594353 67.58477974 C-5.00185163 67.39799027 -1.73758512 67.21453237 1.52671814 67.03147888 C3.53661677 66.91684029 5.54650985 66.80210444 7.55639648 66.68725586 C8.45267761 66.63788879 9.34895874 66.58852173 10.2723999 66.53765869 C15.77233807 66.21986502 21.21673924 65.70615307 26.6875 65.0546875 C24.41819791 61.00129594 21.70526392 57.50271273 18.6875 53.9921875 C18.20547119 53.42781982 17.72344238 52.86345215 17.22680664 52.28198242 C6.80270584 40.14901264 -4.07251798 28.38425491 -16.3125 18.0546875 C-17.13621094 17.34183594 -17.95992187 16.62898438 -18.80859375 15.89453125 C-63.95346136 -22.61322684 -119.08283209 -48.20635813 -177.5625 -58.1953125 C-178.44703857 -58.34653564 -179.33157715 -58.49775879 -180.24291992 -58.65356445 C-197.58894693 -61.42086594 -214.82895487 -62.32274712 -232.375 -62.2578125 C-233.40297699 -62.25598969 -234.43095398 -62.25416687 -235.49008179 -62.25228882 C-251.61548027 -62.20428772 -267.37318798 -61.58025246 -283.3125 -58.9453125 Z M46.6875 94.0546875 C45.70761119 95.35718585 44.77965302 96.69885309 43.875 98.0546875 C43.37355469 98.7971875 42.87210938 99.5396875 42.35546875 100.3046875 C40.25467925 103.76828424 38.4991191 107.4314493 36.6875 111.0546875 C42.6275 110.7246875 48.5675 110.3946875 54.6875 110.0546875 C53.82728183 104.89337845 53.29562441 102.85519437 50.6875 98.6796875 C50.15125 97.80570313 49.615 96.93171875 49.0625 96.03125 C48.60875 95.37898437 48.155 94.72671875 47.6875 94.0546875 C47.3575 94.0546875 47.0275 94.0546875 46.6875 94.0546875 Z M-3.0546875 113.26171875 C-5.2345422 113.38915139 -7.41440275 113.51648405 -9.5942688 113.64372253 C-14.1413307 113.91038178 -18.68815389 114.18076892 -23.23486328 114.45336914 C-29.01546412 114.79929086 -34.79674293 115.13199621 -40.5783062 115.46138477 C-45.07444215 115.71971092 -49.57000528 115.98713164 -54.06546402 116.25696373 C-56.19477692 116.38334312 -58.32428052 116.50655648 -60.45397568 116.62632179 C-83.58799417 117.89981993 -83.58799417 117.89981993 -105.9375 123.6796875 C-106.62859863 123.93129639 -107.31969727 124.18290527 -108.03173828 124.44213867 C-132.07115828 133.64819992 -149.79984489 151.97408866 -160.9609375 174.86328125 C-172.87966148 203.00662661 -166.91563792 237.19588869 -165.11126709 266.91101074 C-164.87826778 270.79105889 -164.6553638 274.67166072 -164.43251991 278.55230331 C-164.21353772 282.34820981 -163.98917735 286.14378384 -163.76316452 289.93927765 C-163.65734967 291.72343042 -163.55288936 293.50766416 -163.44993973 295.29198456 C-161.59774871 327.16957501 -156.17693284 352.35324019 -132.8671875 375.8984375 C-129.84612415 378.44832583 -126.79091024 380.18365999 -123.3125 382.0546875 C-116.11640094 369.90520701 -108.94840839 357.73959336 -101.8125 345.5546875 C-96.3172846 336.17144734 -90.80459377 326.79890652 -85.265625 317.44140625 C-80.76030928 309.82474626 -76.28458911 302.1908786 -71.8125 294.5546875 C-66.31510985 285.1677722 -60.80041175 275.79145685 -55.2590332 266.43041992 C-50.81757676 258.92206418 -46.40738533 251.3955637 -42 243.8671875 C-35.81408447 233.30119994 -29.58945387 222.75914802 -23.33935547 212.23095703 C-18.04135489 203.30011629 -12.78386555 194.34606022 -7.53759766 185.38476562 C-2.47329297 176.73448469 2.61007365 168.09584005 7.7175293 159.47094727 C10.85659722 154.16565293 13.98073834 148.85185922 17.09375 143.53125 C17.47414429 142.88130066 17.85453857 142.23135132 18.24645996 141.56170654 C20.12098517 138.35847551 21.994161 135.15446726 23.86523438 131.94921875 C26.7403091 127.03171474 29.61443154 122.12547836 32.6875 117.328125 C34.86128921 114.40958757 34.86128921 114.40958757 34.6875 112.0546875 C22.06735915 111.83889692 9.53950639 112.51334423 -3.0546875 113.26171875 Z M-538.3125 144.0546875 C-539.35201676 146.42297785 -540.36892328 148.79722644 -541.375 151.1796875 C-541.66955078 151.84484375 -541.96410156 152.51 -542.26757812 153.1953125 C-544.07728526 157.53860962 -544.82857222 160.41477294 -543.3125 165.0546875 C-541.86818665 167.60330482 -540.39825652 169.9589162 -538.75 172.3671875 C-537.74367038 173.87946278 -536.73853585 175.39253377 -535.734375 176.90625 C-535.18587891 177.72770508 -534.63738281 178.54916016 -534.07226562 179.39550781 C-530.82243977 184.30631569 -527.66736404 189.27796446 -524.5 194.2421875 C-523.81671631 195.31057861 -523.13343262 196.37896973 -522.42944336 197.47973633 C-517.47477638 205.22698076 -512.53590551 212.98420851 -507.60229492 220.74487305 C-503.18554388 227.68994094 -498.75160991 234.6238933 -494.3125 241.5546875 C-488.72690187 250.27549683 -483.15745948 259.00633801 -477.6015625 267.74609375 C-473.18498611 274.69071047 -468.75135409 281.62429271 -464.3125 288.5546875 C-458.72690187 297.27549683 -453.15745948 306.00633801 -447.6015625 314.74609375 C-443.18498611 321.69071047 -438.75135409 328.62429271 -434.3125 335.5546875 C-428.72690187 344.27549683 -423.15745948 353.00633801 -417.6015625 361.74609375 C-413.18498611 368.69071047 -408.75135409 375.62429271 -404.3125 382.5546875 C-398.72690187 391.27549683 -393.15745948 400.00633801 -387.6015625 408.74609375 C-383.18498611 415.69071047 -378.75135409 422.62429271 -374.3125 429.5546875 C-368.72690187 438.27549683 -363.15745948 447.00633801 -357.6015625 455.74609375 C-353.18498611 462.69071047 -348.75135409 469.62429271 -344.3125 476.5546875 C-338.72690187 485.27549683 -333.15745948 494.00633801 -327.6015625 502.74609375 C-323.18498611 509.69071047 -318.75135409 516.62429271 -314.3125 523.5546875 C-308.73205255 532.26745507 -303.16767993 540.9902036 -297.61694336 549.72192383 C-292.39599397 557.93137052 -287.15243399 566.1262722 -281.90429688 574.31835938 C-281.27716797 575.29740234 -280.65003906 576.27644531 -280.00390625 577.28515625 C-279.39281006 578.23463135 -278.78171387 579.18410645 -278.15209961 580.16235352 C-276.88088547 582.16103619 -275.63031374 584.1729444 -274.39672852 586.19506836 C-273.47718384 587.69179077 -273.47718384 587.69179077 -272.5390625 589.21875 C-271.99459473 590.11932129 -271.45012695 591.01989258 -270.88916016 591.94775391 C-269.38383221 594.35547281 -269.38383221 594.35547281 -266.125 595.2421875 C-264.2378125 595.149375 -264.2378125 595.149375 -262.3125 595.0546875 C-260.1666265 595.07086243 -258.02078667 595.09200221 -255.875 595.1171875 C-254.02078469 595.10126172 -252.16658125 595.08208772 -250.3125 595.0546875 C-251.58407223 591.65437045 -253.04362409 588.68287741 -255.0078125 585.6328125 C-255.55050781 584.78525391 -256.09320313 583.93769531 -256.65234375 583.06445312 C-257.24144531 582.15373047 -257.83054687 581.24300781 -258.4375 580.3046875 C-259.05496094 579.34240234 -259.67242187 578.38011719 -260.30859375 577.38867188 C-261.62883117 575.33158851 -262.95082486 573.27563145 -264.27441406 571.22070312 C-266.95902245 567.05036274 -269.63169914 562.87244229 -272.30419922 558.69433594 C-273.65162347 556.58785942 -274.99961237 554.48174398 -276.34814453 552.37597656 C-281.25456142 544.71435423 -286.14256051 537.0411905 -291.0234375 529.36328125 C-295.44001389 522.41866453 -299.87364591 515.48508229 -304.3125 508.5546875 C-309.89809813 499.83387817 -315.46754052 491.10303699 -321.0234375 482.36328125 C-325.44001396 475.41866442 -329.87367548 468.48510131 -334.3125 461.5546875 C-342.24106742 449.17474416 -350.13490414 436.7729283 -358.02148438 424.36621094 C-365.44520265 412.68887985 -372.88800277 401.02404922 -380.35107422 389.37182617 C-385.25611131 381.71132977 -390.143468 374.03976296 -395.0234375 366.36328125 C-399.44001389 359.41866453 -403.87364591 352.48508229 -408.3125 345.5546875 C-413.89809813 336.83387817 -419.46754052 328.10303699 -425.0234375 319.36328125 C-429.44001389 312.41866453 -433.87364591 305.48508229 -438.3125 298.5546875 C-443.89809813 289.83387817 -449.46754052 281.10303699 -455.0234375 272.36328125 C-459.44001396 265.41866442 -463.87367548 258.48510131 -468.3125 251.5546875 C-476.24106742 239.17474416 -484.13490414 226.7729283 -492.02148438 214.36621094 C-499.43569924 202.70382849 -506.8628044 191.04991791 -514.32470703 179.41796875 C-517.67026206 174.19945737 -520.99971853 168.97190511 -524.296875 163.72265625 C-525.24820313 162.21251953 -525.24820313 162.21251953 -526.21875 160.671875 C-527.41585883 158.76968936 -528.60881621 156.86488241 -529.796875 154.95703125 C-530.333125 154.10625 -530.869375 153.25546875 -531.421875 152.37890625 C-531.88561523 151.63729248 -532.34935547 150.89567871 -532.82714844 150.1315918 C-534.457001 147.85263786 -536.28490905 145.98242258 -538.3125 144.0546875 Z M74.6875 152.0546875 C73.57235802 153.80320376 72.51074595 155.5858376 71.46875 157.37890625 C71.13913269 157.94361633 70.80951538 158.50832642 70.46990967 159.09014893 C69.37236959 160.97220164 68.28001714 162.85721531 67.1875 164.7421875 C66.4206423 166.0589052 65.65338412 167.37538974 64.88574219 168.69165039 C63.28487273 171.43739425 61.68575657 174.18414787 60.08789062 176.93164062 C56.73993911 182.6857424 53.37330069 188.42887135 50.00537109 194.17129517 C48.93160026 196.00224751 47.85834132 197.83349919 46.78515625 199.66479492 C42.08846652 207.6773859 37.37050697 215.67721311 32.63964844 223.66967773 C28.13459413 231.28573007 23.6592575 238.91906264 19.1875 246.5546875 C13.69226791 255.93791786 8.1795938 265.31046842 2.640625 274.66796875 C-1.86469072 282.28462874 -6.34041089 289.9184964 -10.8125 297.5546875 C-16.30773209 306.93791786 -21.8204062 316.31046842 -27.359375 325.66796875 C-31.49497367 332.6595873 -35.60611794 339.66539592 -39.7114563 346.67480469 C-45.25568048 356.14081565 -50.8015634 365.6058354 -56.375 375.0546875 C-56.89924561 375.94381836 -57.42349121 376.83294922 -57.96362305 377.74902344 C-61.55569947 383.82251018 -65.23781758 389.83188881 -69.01953125 395.7890625 C-70.47771836 397.90942633 -70.47771836 397.90942633 -70.3125 400.0546875 C-53.38541878 400.22657927 -36.59268156 399.82035109 -19.69921875 398.77734375 C-17.4582742 398.64458334 -15.2172911 398.51247216 -12.97627258 398.38096619 C-7.16311993 398.03799826 -1.35056434 397.68578994 4.46191406 397.331604 C9.2004466 397.04443755 13.93936218 396.7639219 18.67831135 396.48372746 C45.19713051 394.97857333 45.19713051 394.97857333 71.6875 393.0546875 C100.02246185 321.25387669 104.53681377 244.51280198 82.625 170.2421875 C82.27526123 169.0514563 82.27526123 169.0514563 81.91845703 167.83666992 C80.24841901 162.37398831 78.11176598 157.22456315 75.6875 152.0546875 C75.3575 152.0546875 75.0275 152.0546875 74.6875 152.0546875 Z M-561.3125 241.0546875 C-564.22647134 298.74095413 -556.02924677 355.82170961 -530.3125 408.0546875 C-529.66172161 409.41877573 -529.01196085 410.78334997 -528.36328125 412.1484375 C-508.57314702 453.27151226 -478.38320295 492.86829121 -442.3125 521.0546875 C-441.14892756 522.00523045 -439.98760416 522.95853081 -438.828125 523.9140625 C-430.3370332 530.8792545 -421.57923358 537.16535696 -412.3125 543.0546875 C-411.25675781 543.73015625 -410.20101562 544.405625 -409.11328125 545.1015625 C-390.70108844 556.65249902 -370.34211463 569.02642894 -349.3125 575.0546875 C-348.6525 574.7246875 -347.9925 574.3946875 -347.3125 574.0546875 C-347.71339844 573.42828369 -348.11429688 572.80187988 -348.52734375 572.15649414 C-349.38005859 570.8241272 -349.38005859 570.8241272 -350.25 569.46484375 C-350.88953613 568.46557861 -351.52907227 567.46631348 -352.18798828 566.43676758 C-353.6238975 564.19313879 -355.05977512 561.94948981 -356.49560547 559.70581055 C-360.14462312 554.00382748 -363.79417298 548.30218727 -367.4453125 542.6015625 C-374.32080218 531.86531114 -381.18423608 521.12164417 -388.02392578 510.36254883 C-392.4403038 503.41815358 -396.87380415 496.48483523 -401.3125 489.5546875 C-406.89809813 480.83387817 -412.46754052 472.10303699 -418.0234375 463.36328125 C-422.44001389 456.41866453 -426.87364591 449.48508229 -431.3125 442.5546875 C-436.32472668 434.72908454 -441.326876 426.89726609 -446.3125 419.0546875 C-453.95265259 407.03770397 -461.63196045 395.04588394 -469.3125 383.0546875 C-477.56659264 370.16803474 -485.81385689 357.27730342 -494.02392578 344.36254883 C-498.4403038 337.41815358 -502.87380415 330.48483523 -507.3125 323.5546875 C-512.89809813 314.83387817 -518.46754052 306.10303699 -524.0234375 297.36328125 C-529.10537471 289.37245237 -534.20778792 281.39480758 -539.32080078 273.42382812 C-542.69022145 268.16769644 -546.04373331 262.90252579 -549.3671875 257.6171875 C-550.01042969 256.59689453 -550.65367187 255.57660156 -551.31640625 254.52539062 C-552.5392275 252.58393852 -553.75815015 250.64002396 -554.97265625 248.69335938 C-555.78669922 247.40268555 -555.78669922 247.40268555 -556.6171875 246.0859375 C-557.09140137 245.32861328 -557.56561523 244.57128906 -558.05419922 243.79101562 C-559.21153069 241.91274816 -559.21153069 241.91274816 -561.3125 241.0546875 Z M-123.3125 383.0546875 C-128.27727737 390.22448195 -132.66713527 397.67788854 -137 405.2421875 C-137.66968253 406.40313289 -138.33960321 407.56394094 -139.00976562 408.72460938 C-141.91547835 413.77815004 -144.74307441 418.82002392 -147.3125 424.0546875 C-131.3908011 434.27516671 -115.91901538 440.55100449 -97.3125 444.0546875 C-91.00457354 434.2291644 -85.02418064 424.22809026 -79.1875 414.1171875 C-78.84645233 413.52794495 -78.50540466 412.93870239 -78.15402222 412.331604 C-77.18073205 410.6483966 -76.21137372 408.96291753 -75.2421875 407.27734375 C-74.67741699 406.29515869 -74.11264648 405.31297363 -73.53076172 404.30102539 C-72.23304408 402.33408382 -72.23304408 402.33408382 -72.3125 401.0546875 C-73.43785156 400.89613281 -74.56320312 400.73757813 -75.72265625 400.57421875 C-93.09189803 397.99443988 -108.61169803 392.85522215 -123.3125 383.0546875 Z M38.46202087 441.16221619 C37.20759438 441.23588158 37.20759438 441.23588158 35.92782593 441.31103516 C34.56350937 441.40058472 34.56350937 441.40058472 33.17163086 441.49194336 C32.20670212 441.55031876 31.24177338 441.60869415 30.24760437 441.6688385 C28.15001313 441.79653443 26.05259409 441.92708343 23.95533562 442.06013298 C20.6190357 442.27164287 17.28234513 442.47549858 13.94544983 442.67738342 C6.83820293 443.10878181 -0.26842295 443.54991029 -7.375 443.9921875 C-15.56399249 444.50153198 -23.75320402 445.00674503 -31.94302177 445.50265694 C-35.19931345 445.70178189 -38.45511654 445.90782471 -41.71095276 446.11424255 C-57.43294118 447.08549631 -73.32159452 448.05676171 -89 446.0546875 C-89.82048828 445.95929687 -90.64097656 445.86390625 -91.48632812 445.765625 C-93.42954476 445.5383482 -95.37124601 445.29815945 -97.3125 445.0546875 C-104.96147569 457.71455285 -112.49096503 470.4416298 -119.96069336 483.20776367 C-120.69122377 484.45622899 -121.42177375 485.70468285 -122.15234375 486.953125 C-122.50973129 487.56386368 -122.86711884 488.17460236 -123.2353363 488.80384827 C-126.41212042 494.2300607 -129.60903905 499.64419537 -132.8125 505.0546875 C-138.20571772 514.16569239 -143.56274536 523.29766076 -148.91299438 532.43392944 C-153.59123488 540.422043 -158.28350301 548.40158056 -163 556.3671875 C-169.82654014 567.89717596 -176.57331653 579.47347924 -183.3125 591.0546875 C-177.70779196 592.95207566 -171.98538905 590.85891797 -166.375 589.6796875 C-164.44708618 589.27520386 -164.44708618 589.27520386 -162.48022461 588.86254883 C-140.72471557 584.17606271 -119.61045706 577.1625162 -99.3125 568.0546875 C-98.32330566 567.61286133 -97.33411133 567.17103516 -96.31494141 566.71582031 C-51.44292743 546.45467842 -7.35746662 514.5790821 22.6875 475.0546875 C23.69821576 473.75963326 24.7100239 472.46543116 25.72265625 471.171875 C33.08535924 461.71175898 40.00484829 452.00500858 46.6875 442.0546875 C43.81591906 441.21645792 41.4423675 440.97623601 38.46202087 441.16221619 Z " fill="#040404" transform="translate(586.3125,86.9453125)"/>
<path d="M0 0 C0.66 0.33 1.32 0.66 2 1 C-7.24 10.24 -16.48 19.48 -26 29 C-26.66 28.67 -27.32 28.34 -28 28 C-18.66666667 18.66666667 -9.33333333 9.33333333 0 0 Z " fill="#323232" transform="translate(118,89)"/>
</svg>
