<?xml version="1.0" standalone="no"?>
<!DOCTYPE svg PUBLIC "-//W3C//DTD SVG 20010904//EN"
 "http://www.w3.org/TR/2001/REC-SVG-20010904/DTD/svg10.dtd">
<svg version="1.0" xmlns="http://www.w3.org/2000/svg"
 width="707.000000pt" height="708.000000pt" viewBox="0 0 707.000000 708.000000"
 preserveAspectRatio="xMidYMid meet">

<g transform="translate(0.000000,708.000000) scale(0.100000,-0.100000)"
fill="#000000" stroke="none">
<path d="M3250 7064 c-19 -2 -93 -11 -165 -20 -1405 -171 -2597 -1213 -2959
-2585 -71 -271 -101 -468 -116 -756 -43 -868 239 -1718 797 -2402 119 -146
374 -398 518 -513 529 -421 1131 -671 1815 -754 175 -21 576 -24 750 -5 693
75 1310 326 1847 753 155 122 439 404 552 548 255 322 432 637 566 1007 330
906 272 1920 -156 2777 -382 762 -1003 1347 -1784 1681 -282 120 -583 202
-930 251 -105 15 -648 28 -735 18z m695 -249 c696 -94 1310 -378 1820 -844
137 -125 388 -403 374 -415 -2 -2 -177 -13 -389 -25 -836 -48 -881 -52 -1055
-103 -38 -11 -120 -44 -181 -73 -466 -220 -754 -657 -754 -1147 0 -105 63
-1237 75 -1348 13 -120 55 -254 120 -385 71 -144 136 -237 237 -337 60 -59
179 -158 191 -158 3 0 58 91 123 202 l118 202 -30 20 c-56 39 -174 168 -218
239 -62 100 -103 208 -121 319 -21 132 -78 1134 -70 1228 20 215 116 412 278
567 135 130 301 218 487 258 48 11 1117 83 1255 85 14 0 32 23 65 81 25 44 50
84 56 90 16 13 86 -106 82 -140 -3 -26 -5 -26 -91 -29 -77 -2 -89 -5 -101 -25
-8 -12 -368 -622 -800 -1356 l-785 -1334 32 -25 c94 -72 298 -142 420 -145
l69 -2 731 1243 c402 683 734 1242 737 1242 17 0 121 -359 155 -536 43 -223
50 -315 50 -619 0 -232 -4 -328 -18 -425 -37 -263 -103 -526 -186 -740 l-41
-105 -672 -38 c-370 -21 -693 -39 -718 -40 l-44 -2 -123 -210 c-68 -115 -119
-213 -115 -217 5 -5 62 -14 126 -20 105 -11 183 -8 702 22 321 18 587 31 590
27 8 -8 -116 -188 -223 -322 -438 -550 -1083 -961 -1778 -1134 -104 -26 -297
-62 -302 -57 -2 2 192 336 431 742 l434 739 -101 25 c-120 31 -226 74 -328
135 -52 31 -76 40 -80 32 -76 -134 -692 -1173 -697 -1174 -5 -1 -1994 3108
-2895 4526 -17 28 -17 28 33 102 145 214 438 530 645 696 499 399 1085 644
1705 713 52 5 111 12 130 14 83 10 531 -3 645 -19z m-2011 -4298 c785 -1230
1429 -2244 1433 -2253 5 -15 -4 -16 -88 -9 -67 5 -99 12 -111 23 -9 10 -633
984 -1388 2166 l-1371 2149 22 61 c46 124 49 130 63 115 7 -8 655 -1021 1440
-2252z m-600 -391 c586 -919 1064 -1671 1062 -1673 -7 -7 -193 72 -336 143
-785 391 -1392 1098 -1663 1939 -98 304 -145 587 -154 915 -6 209 2 369 17
354 5 -5 488 -760 1074 -1678z"/>
</g>
</svg>
